<?xml version="1.0" encoding="utf-8"?>
<!-- Generator: Adobe Illustrator 19.0.0, SVG Export Plug-In . SVG Version: 6.00 Build 0)  -->
<svg version="1.1" id="Layer_1" xmlns="http://www.w3.org/2000/svg" xmlns:xlink="http://www.w3.org/1999/xlink" x="0px" y="0px"
	 viewBox="0 0 96 96" style="enable-background:new 0 0 96 96;" xml:space="preserve">
<style type="text/css">
	.st0{fill:#333333;}
</style>
<g id="XMLID_2_">
	<path id="XMLID_8_" class="st0" d="M43.4,73.4l3.5-16.2l-3.5-4.6l-4.6-2.3L43.4,73.4z M52.6,73.4l4.6-23.1l-4.6,2.3l-3.5,4.6
		L52.6,73.4z M58.4,37c0-0.1-0.1-0.2-0.1-0.2c-0.2-0.2-1.4-0.3-3.5-0.3c-1.7,0-3.7,0.2-6,0.7c-0.2,0-0.4,0.1-0.8,0.1s-0.6,0-0.8-0.1
		c-2.3-0.5-4.3-0.7-6-0.7c-2.1,0-3.2,0.1-3.5,0.3c0,0-0.1,0.1-0.1,0.2c0,0.4,0.1,0.8,0.1,1c0,0.1,0.1,0.2,0.3,0.2s0.2,0.2,0.3,0.4
		c0,0.1,0.1,0.3,0.3,0.7c0.1,0.4,0.2,0.6,0.3,0.7c0,0.1,0.1,0.3,0.3,0.6s0.2,0.5,0.3,0.6c0.1,0.1,0.2,0.3,0.3,0.5
		c0.2,0.2,0.3,0.4,0.4,0.5s0.3,0.2,0.5,0.3c0.2,0.1,0.4,0.2,0.6,0.3S41.8,43,42,43c0.3,0,0.6,0.1,0.9,0.1c0.9,0,1.6-0.2,2.1-0.5
		s0.9-0.7,1.2-1.1c0.2-0.4,0.4-0.8,0.5-1.2c0.1-0.4,0.3-0.8,0.4-1.1s0.4-0.5,0.6-0.5h0.4c0.3,0,0.5,0.2,0.6,0.5s0.3,0.7,0.4,1.1
		s0.3,0.8,0.5,1.2s0.6,0.8,1.2,1.1c0.6,0.3,1.3,0.5,2.1,0.5c0.3,0,0.6,0,0.9-0.1c0.3,0,0.5-0.1,0.7-0.1s0.4-0.1,0.6-0.3
		c0.2-0.1,0.4-0.3,0.5-0.3s0.3-0.2,0.4-0.5c0.2-0.2,0.3-0.4,0.3-0.5c0.1-0.1,0.2-0.3,0.3-0.6s0.2-0.5,0.3-0.6c0-0.1,0.1-0.3,0.3-0.7
		c0.1-0.4,0.2-0.6,0.3-0.7c0-0.2,0.1-0.3,0.3-0.4s0.2-0.2,0.3-0.2C58.3,37.7,58.3,37.4,58.4,37z M73.4,68.7c0,2.9-0.9,5.2-2.6,6.9
		s-4.1,2.5-7,2.5H32.2c-2.9,0-5.2-0.8-7-2.5s-2.6-3.9-2.6-6.9c0-1.5,0.1-2.9,0.2-4.3c0.1-1.4,0.3-2.9,0.7-4.5s0.8-3.1,1.4-4.5
		c0.6-1.3,1.3-2.6,2.3-3.7c1-1.2,2.1-2.1,3.4-2.7l-3.2-7.9h7.7c-0.5-1.5-0.8-3.1-0.8-4.6c0-0.3,0-0.7,0.1-1.2c-4.7-1-7-2.1-7-3.5
		c0-1.4,2.5-2.6,7.6-3.6c0.4-1.5,1-3.1,1.9-4.8c0.8-1.7,1.7-3.1,2.5-4.1c0.8-0.9,1.7-1.3,2.7-1.3c0.7,0,1.7,0.4,3,1.1
		c1.3,0.7,2.3,1.1,3,1.1s1.7-0.4,3-1.1c1.3-0.7,2.3-1.1,3-1.1c1.1,0,2,0.4,2.7,1.3c0.9,1,1.7,2.4,2.5,4.1c0.8,1.7,1.4,3.3,1.9,4.8
		c5,1,7.6,2.2,7.6,3.6c0,1.3-2.3,2.5-7,3.5c0.2,1.9-0.1,3.9-0.7,5.8h7.7l-3,8.1c1.5,0.8,2.8,2,3.9,3.5c1.1,1.5,1.9,3.3,2.4,5.2
		c0.5,1.9,0.9,3.7,1,5.5C73.3,65,73.4,66.8,73.4,68.7z"/>
</g>
</svg>
